# xmcd
#
# Track frame offsets:
#	150
#	24733
#	56031
#	72268
#	94952
#	121584
#	144560
#	169549
#	185734
#	200208
#	223910
#
# Disc length: 3273 seconds
#
# Revision: 1
# Processed by: cddbd v1.5.2PL0 Copyright (c) Steve Scherf et al.
# Submitted via: audiograbber 1.83.01
#
DISCID=ac0cc70b
DTITLE=Jacaszek - Treny
DYEAR=2008
DGENRE=Classical
TTITLE0=Rytm To Niesmiertelnosc I
TTITLE1=Lament
TTITLE2=Orszula
TTITLE3=Zal
TTITLE4=Powoli
TTITLE5=Taniec
TTITLE6=O Ma Zalosci
TTITLE7=Tren IV
TTITLE8=Walc
TTITLE9=Martwa Cisza
TTITLE10=Rytm To Niesmiertelnosc II
EXTD=
EXTT0=
EXTT1=
EXTT2=
EXTT3=
EXTT4=
EXTT5=
EXTT6=
EXTT7=
EXTT8=
EXTT9=
EXTT10=
PLAYORDER=
